<svg width="15" height="14" viewBox="0 0 15 14" fill="none" xmlns="http://www.w3.org/2000/svg">
<path d="M14.4201 9.7192H5.11543L5.58262 8.76764L13.3451 8.75358C13.6076 8.75358 13.8326 8.56608 13.8795 8.3067L14.9545 2.28951C14.9826 2.1317 14.9404 1.9692 14.8373 1.84576C14.7863 1.78501 14.7228 1.73608 14.651 1.70235C14.5792 1.66863 14.501 1.65092 14.4217 1.65045L4.54668 1.61764L4.4623 1.22076C4.40918 0.967639 4.18105 0.783264 3.92168 0.783264H1.50762C1.36133 0.783264 1.22104 0.841375 1.1176 0.944813C1.01417 1.04825 0.956055 1.18854 0.956055 1.33483C0.956055 1.48111 1.01417 1.6214 1.1176 1.72484C1.22104 1.82828 1.36133 1.88639 1.50762 1.88639H3.4748L3.84355 3.63951L4.75137 8.03483L3.58262 9.94264C3.52192 10.0246 3.48536 10.1218 3.47708 10.2234C3.4688 10.3251 3.48912 10.427 3.53574 10.5176C3.62949 10.7036 3.81855 10.8208 4.02793 10.8208H5.00918C4.79999 11.0986 4.687 11.437 4.6873 11.7848C4.6873 12.6692 5.40605 13.388 6.29043 13.388C7.1748 13.388 7.89355 12.6692 7.89355 11.7848C7.89355 11.4364 7.77793 11.0973 7.57168 10.8208H10.0889C9.87968 11.0986 9.76669 11.437 9.76699 11.7848C9.76699 12.6692 10.4857 13.388 11.3701 13.388C12.2545 13.388 12.9732 12.6692 12.9732 11.7848C12.9732 11.4364 12.8576 11.0973 12.6514 10.8208H14.4217C14.7248 10.8208 14.9732 10.5739 14.9732 10.2692C14.9723 10.1231 14.9137 9.98323 14.81 9.88019C14.7064 9.77715 14.5663 9.71928 14.4201 9.7192V9.7192ZM4.77637 2.70514L13.7732 2.73483L12.892 7.6692L5.8248 7.6817L4.77637 2.70514ZM6.29043 12.2786C6.01855 12.2786 5.79668 12.0567 5.79668 11.7848C5.79668 11.513 6.01855 11.2911 6.29043 11.2911C6.5623 11.2911 6.78418 11.513 6.78418 11.7848C6.78418 11.9158 6.73216 12.0414 6.63956 12.134C6.54697 12.2266 6.42138 12.2786 6.29043 12.2786V12.2786ZM11.3701 12.2786C11.0982 12.2786 10.8764 12.0567 10.8764 11.7848C10.8764 11.513 11.0982 11.2911 11.3701 11.2911C11.642 11.2911 11.8639 11.513 11.8639 11.7848C11.8639 11.9158 11.8118 12.0414 11.7193 12.134C11.6267 12.2266 11.5011 12.2786 11.3701 12.2786V12.2786Z" fill="white"/>
</svg>
